<?xml version="1.0" encoding="UTF-8" standalone="no"?>
<!-- Created with Inkscape (http://www.inkscape.org/) -->

<svg
   width="3600"
   height="3600"
   viewBox="0 0 952.49999 952.49999"
   version="1.1"
   id="svg5"
   xml:space="preserve"
   inkscape:version="1.2.1 (9c6d41e410, 2022-07-14)"
   sodipodi:docname="body-bg.svg"
   xmlns:inkscape="http://www.inkscape.org/namespaces/inkscape"
   xmlns:sodipodi="http://sodipodi.sourceforge.net/DTD/sodipodi-0.dtd"
   xmlns="http://www.w3.org/2000/svg"
   xmlns:svg="http://www.w3.org/2000/svg"><sodipodi:namedview
     id="namedview7"
     pagecolor="#ffffff"
     bordercolor="#000000"
     borderopacity="0.25"
     inkscape:showpageshadow="2"
     inkscape:pageopacity="0.0"
     inkscape:pagecheckerboard="0"
     inkscape:deskcolor="#d1d1d1"
     inkscape:document-units="px"
     showgrid="false"
     inkscape:zoom="0.82691384"
     inkscape:cx="797.54379"
     inkscape:cy="498.23812"
     inkscape:window-width="1920"
     inkscape:window-height="1017"
     inkscape:window-x="-8"
     inkscape:window-y="-8"
     inkscape:window-maximized="1"
     inkscape:current-layer="layer1" /><defs
     id="defs2" /><g
     inkscape:label="Layer 1"
     inkscape:groupmode="layer"
     id="layer1"><g
       id="g5821"
       transform="matrix(5.7805026,0,0,9.3530221,-135.37684,-1729.1003)"><path
         id="path5673"
         style="fill:#f7afa7;fill-opacity:1;stroke-width:0.301253"
         d="m 23.419563,184.87076 v 62.04479 a 52.338711,61.564518 0 0 0 51.096622,-61.51252 52.338711,61.564518 0 0 0 -0.0057,-0.53227 z" /><path
         id="path5812"
         style="fill:#f7afa7;fill-opacity:1;stroke-width:0.264583"
         d="m 188.19761,224.22495 a 93.785156,45.345739 30.849698 0 0 -2.90215,-1.10071 93.785156,45.345739 30.849698 0 0 -5.66735,-1.91255 93.785156,45.345739 30.849698 0 0 -5.59914,-1.65106 93.785156,45.345739 30.849698 0 0 -5.50612,-1.38183 93.785156,45.345739 30.849698 0 0 -5.38676,-1.10639 93.785156,45.345739 30.849698 0 0 -5.24257,-0.82527 93.785156,45.345739 30.849698 0 0 -5.07359,-0.54054 93.785156,45.345739 30.849698 0 0 -4.88084,-0.25321 93.785156,45.345739 30.849698 0 0 -4.66587,0.0351 93.785156,45.345739 30.849698 0 0 -4.42918,0.32298 93.785156,45.345739 30.849698 0 0 -4.17132,0.60978 93.785156,45.345739 30.849698 0 0 -3.89434,0.894 93.785156,45.345739 30.849698 0 0 -3.59926,1.17357 93.785156,45.345739 30.849698 0 0 -3.28714,1.44746 93.785156,45.345739 30.849698 0 0 -2.95951,1.71566 93.785156,45.345739 30.849698 0 0 -2.61845,1.97455 93.785156,45.345739 30.849698 0 0 -2.26549,2.22519 93.785156,45.345739 30.849698 0 0 -1.90118,2.46497 93.785156,45.345739 30.849698 0 0 -1.52859,2.69285 93.785156,45.345739 30.849698 0 0 -1.14876,2.90939 93.785156,45.345739 30.849698 0 0 -0.76378,3.11144 93.785156,45.345739 30.849698 0 0 -0.37465,3.29954 93.785156,45.345739 30.849698 0 0 0.016,3.47162 93.785156,45.345739 30.849698 0 0 0.40618,3.62768 93.785156,45.345739 30.849698 0 0 0.79479,3.76722 93.785156,45.345739 30.849698 0 0 1.17977,3.88916 93.785156,45.345739 30.849698 0 0 1.55959,3.99253 93.785156,45.345739 30.849698 0 0 1.93115,4.07727 93.785156,45.345739 30.849698 0 0 2.29443,4.14341 93.785156,45.345739 30.849698 0 0 2.64687,4.19044 93.785156,45.345739 30.849698 0 0 2.9869,4.21732 93.785156,45.345739 30.849698 0 0 3.31298,4.22455 93.785156,45.345739 30.849698 0 0 3.62355,4.21266 93.785156,45.345739 30.849698 0 0 2.4045,2.56573 h 54.70932 z" /><path
         id="path5815"
         style="fill:#f15e3d;fill-opacity:1;stroke-width:0.264583"
         d="m 74.510501,184.87076 a 52.338711,61.564518 0 0 1 0.0057,0.53227 52.338711,61.564518 0 0 1 -51.096622,61.51252 V 286.7095 H 133.48829 a 93.785156,45.345739 30.849698 0 1 -2.4045,-2.56573 93.785156,45.345739 30.849698 0 1 -3.62355,-4.21266 93.785156,45.345739 30.849698 0 1 -3.31298,-4.22455 93.785156,45.345739 30.849698 0 1 -2.9869,-4.21732 93.785156,45.345739 30.849698 0 1 -2.64687,-4.19044 93.785156,45.345739 30.849698 0 1 -2.29443,-4.14341 93.785156,45.345739 30.849698 0 1 -1.93115,-4.07727 93.785156,45.345739 30.849698 0 1 -1.55959,-3.99253 93.785156,45.345739 30.849698 0 1 -1.17977,-3.88916 93.785156,45.345739 30.849698 0 1 -0.79479,-3.76722 93.785156,45.345739 30.849698 0 1 -0.40618,-3.62768 93.785156,45.345739 30.849698 0 1 -0.016,-3.47162 93.785156,45.345739 30.849698 0 1 0.37465,-3.29954 93.785156,45.345739 30.849698 0 1 0.76378,-3.11144 93.785156,45.345739 30.849698 0 1 1.14876,-2.90939 93.785156,45.345739 30.849698 0 1 1.52859,-2.69285 93.785156,45.345739 30.849698 0 1 1.90118,-2.46497 93.785156,45.345739 30.849698 0 1 2.26549,-2.22519 93.785156,45.345739 30.849698 0 1 2.61845,-1.97455 93.785156,45.345739 30.849698 0 1 2.95951,-1.71566 93.785156,45.345739 30.849698 0 1 3.28714,-1.44746 93.785156,45.345739 30.849698 0 1 3.59926,-1.17357 93.785156,45.345739 30.849698 0 1 3.89434,-0.894 93.785156,45.345739 30.849698 0 1 4.17132,-0.60978 93.785156,45.345739 30.849698 0 1 4.42918,-0.32298 93.785156,45.345739 30.849698 0 1 4.66587,-0.0351 93.785156,45.345739 30.849698 0 1 4.88084,0.25321 93.785156,45.345739 30.849698 0 1 5.07359,0.54054 93.785156,45.345739 30.849698 0 1 5.24257,0.82527 93.785156,45.345739 30.849698 0 1 5.38676,1.10639 93.785156,45.345739 30.849698 0 1 5.50612,1.38183 93.785156,45.345739 30.849698 0 1 5.59914,1.65106 93.785156,45.345739 30.849698 0 1 5.66735,1.91255 93.785156,45.345739 30.849698 0 1 2.90215,1.10071 V 184.8708 Z" /></g></g></svg>
